<?xml version="1.0" standalone="no"?>
<!DOCTYPE svg PUBLIC "-//W3C//DTD SVG 20010904//EN"
 "http://www.w3.org/TR/2001/REC-SVG-20010904/DTD/svg10.dtd">
<svg version="1.0" xmlns="http://www.w3.org/2000/svg"
 width="1024.000000pt" height="1024.000000pt" viewBox="0 0 1024.000000 1024.000000"
 preserveAspectRatio="xMidYMid meet">
<metadata>
Created by potrace 1.14, written by Peter Selinger 2001-2017
</metadata>
<g transform="translate(0.000000,1024.000000) scale(0.100000,-0.100000)"
fill="#000000" stroke="none">
<path d="M0 5120 l0 -5120 5120 0 5120 0 0 5120 0 5120 -5120 0 -5120 0 0
-5120z m5475 2536 c437 -65 841 -234 1194 -499 120 -91 339 -302 435 -421 293
-360 479 -787 553 -1266 24 -161 24 -539 0 -700 -89 -576 -323 -1048 -720
-1448 -412 -416 -918 -664 -1517 -744 -203 -26 -552 -14 -775 28 -822 156
-1519 706 -1865 1474 -90 200 -166 473 -202 725 -17 118 -17 512 0 630 42 291
121 556 236 792 153 312 324 544 573 774 384 357 909 601 1413 658 52 6 111
13 130 15 73 9 449 -4 545 -18z"/>
<path d="M4960 7034 c-162 -20 -209 -28 -312 -54 -553 -139 -1007 -512 -1258
-1032 -417 -864 -126 -1906 681 -2434 811 -532 1892 -372 2517 371 487 579
589 1386 262 2064 -277 572 -796 961 -1425 1067 -88 14 -395 26 -465 18z"/>
</g>
</svg>
